<svg id="Layer_1" data-name="Layer 1" xmlns="http://www.w3.org/2000/svg" viewBox="0 0 255.38 37.78"><defs><style>.cls-1{fill:#685faa;}</style></defs><title>zvukofor logo line</title><path class="cls-1" d="M189.2,402.11A18.89,18.89,0,1,0,208.1,421,18.91,18.91,0,0,0,189.2,402.11Zm0,6.6a12.16,12.16,0,0,1,6,1.59L178.51,427a12.26,12.26,0,0,1,10.69-18.32Zm0,24.58a12.22,12.22,0,0,1-6-1.59L199.9,415a12.28,12.28,0,0,1-10.7,18.32Zm30.31-8.07h7.08v2.38H215.75v-2.23l6.89-8.24h-6.35v-2.38h10.12V417Zm16.12-10.47h2.92l-4.27,12.85h-3.19l-4.15-12.85h2.89l2.87,9h0Zm11.87,0h2.82v8a4.85,4.85,0,0,1-1.46,3.88,7.07,7.07,0,0,1-8.07,0,4.94,4.94,0,0,1-1.43-3.89v-8h2.83v8a5.89,5.89,0,0,0,.09,1,2.14,2.14,0,0,0,.37.89,2.08,2.08,0,0,0,.81.63,3.27,3.27,0,0,0,1.37.24,2.64,2.64,0,0,0,2.09-.67,3.25,3.25,0,0,0,.58-2.12Zm11.26,5.07,5.51,7.78h-3.55l-3.87-5.78-1.62,1.64v4.14h-2.82V414.75h2.82v5.33l5-5.33h3.53Zm15.83-3.42a5.6,5.6,0,0,0-2-1.43,6.41,6.41,0,0,0-2.66-.53,6.48,6.48,0,0,0-2.66.53,5.6,5.6,0,0,0-2,1.43,6.51,6.51,0,0,0-1.25,2.16,8.21,8.21,0,0,0-.43,2.67,8,8,0,0,0,.43,2.62,6.28,6.28,0,0,0,1.25,2.11,5.83,5.83,0,0,0,2,1.42,6.64,6.64,0,0,0,2.66.51,6.57,6.57,0,0,0,2.66-.51,5.83,5.83,0,0,0,2-1.42,6.1,6.1,0,0,0,1.24-2.11,7.7,7.7,0,0,0,.44-2.62,8,8,0,0,0-.44-2.67A6.33,6.33,0,0,0,274.59,416.4Zm-1.34,6.4a4.29,4.29,0,0,1-.6,1.38,3.08,3.08,0,0,1-1.08,1,3.29,3.29,0,0,1-1.62.37,3.23,3.23,0,0,1-1.62-.37,3,3,0,0,1-1.08-1,4.08,4.08,0,0,1-.6-1.38,6.31,6.31,0,0,1-.19-1.57,6.88,6.88,0,0,1,.19-1.64,4.06,4.06,0,0,1,.6-1.41,2.94,2.94,0,0,1,1.08-1,3.23,3.23,0,0,1,1.62-.37,3.29,3.29,0,0,1,1.62.37,3,3,0,0,1,1.08,1,4.26,4.26,0,0,1,.6,1.41,6.88,6.88,0,0,1,.19,1.64A6.31,6.31,0,0,1,273.25,422.8Zm4.55-8.05h9v2.38h-6.21v3H286v2.2h-5.38v5.31H277.8Zm20.43,1.65a5.6,5.6,0,0,0-2-1.43,6.94,6.94,0,0,0-5.32,0,5.55,5.55,0,0,0-2,1.43,6.49,6.49,0,0,0-1.24,2.16,8,8,0,0,0-.44,2.67,7.7,7.7,0,0,0,.44,2.62,6.26,6.26,0,0,0,1.24,2.11,5.78,5.78,0,0,0,2,1.42,7.19,7.19,0,0,0,5.32,0,5.83,5.83,0,0,0,2-1.42,6.26,6.26,0,0,0,1.24-2.11,7.7,7.7,0,0,0,.43-2.62,8,8,0,0,0-.43-2.67A6.49,6.49,0,0,0,298.23,416.4Zm-1.34,6.4a4.3,4.3,0,0,1-.61,1.38,2.92,2.92,0,0,1-1.08,1,3.23,3.23,0,0,1-1.62.37,3.29,3.29,0,0,1-1.62-.37,3.08,3.08,0,0,1-1.08-1,4.52,4.52,0,0,1-.6-1.38,6.31,6.31,0,0,1-.19-1.57,6.88,6.88,0,0,1,.19-1.64,4.48,4.48,0,0,1,.6-1.41,3,3,0,0,1,1.08-1,3.29,3.29,0,0,1,1.62-.37,3.23,3.23,0,0,1,1.62.37,2.86,2.86,0,0,1,1.08,1,4.28,4.28,0,0,1,.61,1.41,7.43,7.43,0,0,1,.19,1.64A6.82,6.82,0,0,1,296.89,422.8Zm15.18,3.33c0-.29-.05-.58-.07-.85s0-.52,0-.72a7.81,7.81,0,0,0-.14-1,3.12,3.12,0,0,0-.31-.89A2.59,2.59,0,0,0,311,422a2.41,2.41,0,0,0-.86-.44v0a3,3,0,0,0,1.55-1.26,3.85,3.85,0,0,0,.48-2,3.65,3.65,0,0,0-.26-1.38,3.31,3.31,0,0,0-.76-1.13,3.47,3.47,0,0,0-1.19-.76,4,4,0,0,0-1.55-.28h-6.93V427.6h2.82v-5h2.83a2.06,2.06,0,0,1,1.53.47,2.51,2.51,0,0,1,.61,1.47c.07.52.13,1.06.16,1.62a5.31,5.31,0,0,0,.29,1.46h2.83a2,2,0,0,1-.3-.66A6.5,6.5,0,0,1,312.07,426.13Zm-3.25-6a2.14,2.14,0,0,1-1.46.43h-3.1v-3.62h3.1a2.19,2.19,0,0,1,1.46.43,1.72,1.72,0,0,1,.48,1.36A1.8,1.8,0,0,1,308.82,420.13Zm19.3,2.36a3.16,3.16,0,0,1,.35,1.58,3.21,3.21,0,0,1-.46,1.76,3.8,3.8,0,0,1-1.17,1.19,5.31,5.31,0,0,1-1.62.66,7.64,7.64,0,0,1-1.77.21,7.5,7.5,0,0,1-2-.27,4.93,4.93,0,0,1-1.69-.82,4,4,0,0,1-1.16-1.4,4.57,4.57,0,0,1-.42-2h1.62a2.92,2.92,0,0,0,.32,1.4,2.83,2.83,0,0,0,.82,1,3.68,3.68,0,0,0,1.2.56,5.56,5.56,0,0,0,1.41.18,6.6,6.6,0,0,0,1.16-.11,3.44,3.44,0,0,0,1.05-.37,1.94,1.94,0,0,0,1-1.86,1.56,1.56,0,0,0-.35-1.08,2.55,2.55,0,0,0-.93-.68,7.18,7.18,0,0,0-1.33-.42l-1.5-.33c-.51-.12-1-.25-1.5-.4a5.76,5.76,0,0,1-1.33-.59,2.84,2.84,0,0,1-.93-1,2.76,2.76,0,0,1-.35-1.47,3.47,3.47,0,0,1,.39-1.68,3.6,3.6,0,0,1,1.06-1.17,4.73,4.73,0,0,1,1.49-.68,6.6,6.6,0,0,1,1.72-.23,6.77,6.77,0,0,1,1.84.24,4,4,0,0,1,1.48.74,3.48,3.48,0,0,1,1,1.26,4.57,4.57,0,0,1,.4,1.83h-1.62a2.68,2.68,0,0,0-1-2,3.63,3.63,0,0,0-2.18-.62,5.29,5.29,0,0,0-1.06.11,2.73,2.73,0,0,0-.93.36,1.85,1.85,0,0,0-.65.68,2.09,2.09,0,0,0-.24,1.05,1.31,1.31,0,0,0,.35,1,2.42,2.42,0,0,0,.93.6,7.47,7.47,0,0,0,1.33.39l1.5.33c.51.12,1,.27,1.5.43a5,5,0,0,1,1.33.65A3.12,3.12,0,0,1,328.12,422.49Zm12-6a5.78,5.78,0,0,0-1.92-1.49,6.72,6.72,0,0,0-5.37,0,5.58,5.58,0,0,0-1.92,1.49,6.46,6.46,0,0,0-1.17,2.16,8.58,8.58,0,0,0,0,5.05,6.32,6.32,0,0,0,1.17,2.15,5.46,5.46,0,0,0,1.92,1.49,6.83,6.83,0,0,0,5.37,0,5.65,5.65,0,0,0,1.92-1.49,6.29,6.29,0,0,0,1.16-2.15,8.37,8.37,0,0,0,0-5.05A6.43,6.43,0,0,0,340.09,416.49Zm-.41,6.6a5.22,5.22,0,0,1-.8,1.7A4.06,4.06,0,0,1,337.5,426a4.27,4.27,0,0,1-2,.46,4.2,4.2,0,0,1-2-.46,4,4,0,0,1-1.39-1.22,5.2,5.2,0,0,1-.79-1.7,7.46,7.46,0,0,1,0-3.83,5.2,5.2,0,0,1,.79-1.7,4,4,0,0,1,1.39-1.22,4.2,4.2,0,0,1,2-.46,4.27,4.27,0,0,1,2,.46,4.06,4.06,0,0,1,1.38,1.22,5.22,5.22,0,0,1,.8,1.7,7.46,7.46,0,0,1,0,3.83Zm12.14-8.34h1.71V423a4.84,4.84,0,0,1-1.32,3.7,5.25,5.25,0,0,1-3.74,1.23,5.8,5.8,0,0,1-3.88-1.18,4.66,4.66,0,0,1-1.4-3.75v-8.21h1.71V423a3.51,3.51,0,0,0,.92,2.62,3.67,3.67,0,0,0,2.65.89,3.31,3.31,0,0,0,2.49-.89,3.66,3.66,0,0,0,.86-2.62Zm12.6,0H366V427.6h-1.87l-6.71-10.31h0V427.6H355.8V414.75h1.82l6.76,10.42h0Zm8.35,0h-4.41V427.6h4.41a7.7,7.7,0,0,0,2.77-.45,4.75,4.75,0,0,0,1.93-1.3,5.47,5.47,0,0,0,1.12-2.11,10.38,10.38,0,0,0,.36-2.87,6,6,0,0,0-1.61-4.61A6.38,6.38,0,0,0,372.77,414.75Zm4.22,8.38a4.85,4.85,0,0,1-.62,1.39,3.11,3.11,0,0,1-.85.88,3.89,3.89,0,0,1-1,.5,4.28,4.28,0,0,1-.91.22,7,7,0,0,1-.72,0h-2.85v-10H373a5.29,5.29,0,0,1,2,.33,3.25,3.25,0,0,1,1.32,1A3.92,3.92,0,0,1,377,419a8.65,8.65,0,0,1,.23,2.06A7.08,7.08,0,0,1,377,423.13Zm19.4-8.38L392,426.16h-6.72V414.75h-1.71V427.6h9.61l1.44-3.87H400l1.4,3.87h1.89l-5-12.85Zm-1.28,7.54,2.18-6h0l2.14,6Zm16.77-1.48v0a2.91,2.91,0,0,0,1.41-1.11,3.14,3.14,0,0,0,.5-1.77,3,3,0,0,0-.44-1.64,3.41,3.41,0,0,0-1.07-1,2.32,2.32,0,0,0-.7-.27,7.2,7.2,0,0,0-.87-.14c-.31,0-.63-.05-.95-.05h-5.55V427.6h6.21a4.16,4.16,0,0,0,1.68-.31,3.75,3.75,0,0,0,1.23-.83,3.49,3.49,0,0,0,.75-1.18,4,4,0,0,0,.25-1.37,3.26,3.26,0,0,0-.63-2A3,3,0,0,0,411.88,420.81Zm-6-4.62h3.42a8.74,8.74,0,0,1,1.05.06,2.4,2.4,0,0,1,.88.28,1.57,1.57,0,0,1,.59.61,2.23,2.23,0,0,1,.22,1.08,1.86,1.86,0,0,1-.64,1.54,3.41,3.41,0,0,1-2.1.51h-3.42Zm6.06,9.36a2.46,2.46,0,0,1-1.77.61h-4.29v-4.44h3.91a5.83,5.83,0,0,1,1,.09,2.51,2.51,0,0,1,.89.35,1.76,1.76,0,0,1,.62.65,2.09,2.09,0,0,1,.24,1.05A2.25,2.25,0,0,1,412,425.55Zm13.71-1.48a3.29,3.29,0,0,1-.46,1.76,3.94,3.94,0,0,1-1.18,1.19,5.35,5.35,0,0,1-1.61.66,7.77,7.77,0,0,1-1.77.21,7.58,7.58,0,0,1-2.05-.27,5,5,0,0,1-1.69-.82,3.84,3.84,0,0,1-1.15-1.4,4.57,4.57,0,0,1-.42-2H417a2.92,2.92,0,0,0,.31,1.4,2.86,2.86,0,0,0,.83,1,3.5,3.5,0,0,0,1.2.56,5.43,5.43,0,0,0,1.4.18,6.6,6.6,0,0,0,1.16-.11,3.44,3.44,0,0,0,1.05-.37,2,2,0,0,0,.76-.71,2.13,2.13,0,0,0,.29-1.15,1.61,1.61,0,0,0-.35-1.08,2.68,2.68,0,0,0-.94-.68,7.31,7.31,0,0,0-1.32-.42l-1.51-.33c-.51-.12-1-.25-1.5-.4a5.69,5.69,0,0,1-1.32-.59,3,3,0,0,1-.94-1,2.86,2.86,0,0,1-.35-1.47,3.37,3.37,0,0,1,.4-1.68,3.47,3.47,0,0,1,1.05-1.17,4.94,4.94,0,0,1,1.49-.68,6.86,6.86,0,0,1,3.56,0,4,4,0,0,1,1.48.74,3.38,3.38,0,0,1,1,1.26,4.57,4.57,0,0,1,.41,1.83h-1.62a2.72,2.72,0,0,0-1-2,3.66,3.66,0,0,0-2.19-.62,5.37,5.37,0,0,0-1.06.11,2.73,2.73,0,0,0-.93.36,1.93,1.93,0,0,0-.65.68,2.09,2.09,0,0,0-.24,1.05,1.35,1.35,0,0,0,.35,1,2.54,2.54,0,0,0,.94.6,7.36,7.36,0,0,0,1.32.39l1.5.33c.51.12,1,.27,1.51.43a5.08,5.08,0,0,1,1.32.65,3,3,0,0,1,1.29,2.63Z" transform="translate(-170.31 -402.11)"/></svg>