<svg xmlns="http://www.w3.org/2000/svg" viewBox="0 0 69 69"><defs><style>.cls-1{fill:#685fa6;}.cls-2{fill:#685faa;}</style></defs><title>Asset 1</title><g id="Layer_2" data-name="Layer 2"><g id="Layer_1-2" data-name="Layer 1"><path class="cls-1" d="M34.5,69A34.5,34.5,0,1,1,69,34.5,34.54,34.54,0,0,1,34.5,69Zm0-63A28.5,28.5,0,1,0,63,34.5,28.54,28.54,0,0,0,34.5,6Z"/><path class="cls-2" d="M31.51,21.84V47.15a2.34,2.34,0,0,1-2.34,2.34H25.35A2.34,2.34,0,0,1,23,47.15V21.84a2.34,2.34,0,0,1,2.34-2.34h3.82A2.34,2.34,0,0,1,31.51,21.84Z"/><path class="cls-2" d="M46,21.84V47.15a2.34,2.34,0,0,1-2.34,2.34H39.84a2.34,2.34,0,0,1-2.34-2.34V21.84a2.34,2.34,0,0,1,2.34-2.34h3.82A2.34,2.34,0,0,1,46,21.84Z"/></g></g></svg>