<?xml version="1.0" encoding="utf-8"?>
<!-- Generator: Adobe Illustrator 24.0.1, SVG Export Plug-In . SVG Version: 6.00 Build 0)  -->
<svg version="1.1" id="Layer_1" xmlns="http://www.w3.org/2000/svg" xmlns:xlink="http://www.w3.org/1999/xlink" x="0px" y="0px"
	 viewBox="0 0 69 69" style="enable-background:new 0 0 69 69;" xml:space="preserve">
<style type="text/css">
	.st0{fill:#46009A;}
</style>
<title>Asset 1</title>
<g id="Layer_2_1_">
	<g id="Layer_1-2">
		<path class="st0" d="M48.5,37.4c2.7-1.6,2.7-4.1,0-5.7l-19-11.1c-2.7-1.6-4.9-0.3-4.9,2.8v22.2c0,3.1,2.2,4.4,4.9,2.8L48.5,37.4z"
			/>
		<path class="st0" d="M34.5,69C15.4,69,0,53.6,0,34.5S15.4,0,34.5,0S69,15.4,69,34.5C69,53.5,53.5,69,34.5,69z M34.5,6
			C18.8,6,6,18.8,6,34.5S18.8,63,34.5,63S63,50.2,63,34.5C63,18.8,50.2,6,34.5,6z"/>
	</g>
</g>
</svg>
