<?xml version="1.0" encoding="utf-8"?>
<!-- Generator: Adobe Illustrator 24.0.1, SVG Export Plug-In . SVG Version: 6.00 Build 0)  -->
<svg version="1.1" id="Layer_1" xmlns="http://www.w3.org/2000/svg" xmlns:xlink="http://www.w3.org/1999/xlink" x="0px" y="0px"
	 viewBox="0 0 67 67" style="enable-background:new 0 0 67 67;" xml:space="preserve">
<style type="text/css">
	.st0{fill:#EF4800;}
	.st1{fill:#FFFFFF;}
</style>
<title>Asset 1</title>
<g id="Layer_2_1_">
	<g id="Layer_1-2">
		<path class="st0" d="M33.5,0C15,0,0,15,0,33.5S15,67,33.5,67S67,52,67,33.5C67,15,52,0,33.5,0z"/>
		<path class="st1" d="M11.8,28.7c0.4,0,0.9,0,1.3,0.1c0.4,0.1,0.7,0.2,1,0.4c0.3,0.2,0.5,0.5,0.6,0.8c0.2,0.4,0.2,0.8,0.2,1.2
			c0,0.4-0.1,0.9-0.3,1.3c-0.3,0.4-0.6,0.6-1,0.8c0.6,0.1,1,0.5,1.4,0.9c0.3,0.5,0.5,1,0.5,1.6c0,0.5-0.1,0.9-0.3,1.3
			c-0.2,0.4-0.5,0.7-0.8,0.9c-0.3,0.2-0.7,0.4-1.1,0.5c-0.4,0.1-0.9,0.2-1.3,0.2H7.2v-10H11.8z M11.6,32.7c0.4,0,0.7-0.1,1-0.3
			c0.3-0.2,0.4-0.6,0.4-0.9c0-0.2,0-0.4-0.1-0.6c-0.1-0.1-0.2-0.3-0.3-0.4c-0.1-0.1-0.3-0.1-0.5-0.2c-0.2,0-0.4,0-0.6,0H9.3v2.3
			L11.6,32.7L11.6,32.7z M11.7,37c0.2,0,0.4,0,0.6-0.1c0.2,0,0.4-0.1,0.5-0.2c0.2-0.1,0.3-0.2,0.4-0.4c0.1-0.2,0.1-0.4,0.1-0.6
			c0-0.4-0.1-0.8-0.4-1.1c-0.3-0.2-0.7-0.4-1.1-0.3H9.4V37H11.7z"/>
		<path class="st1" d="M15.8,28.7h2.5l2.3,3.9l2.3-3.9h2.5l-3.7,6.2v3.8h-2.2v-3.9L15.8,28.7z"/>
		<path class="st1" d="M30.6,28.7c0.5,0,1.1,0.1,1.6,0.3c0.4,0.2,0.8,0.4,1.1,0.7c0.3,0.3,0.5,0.6,0.6,1c0.3,0.8,0.3,1.6,0,2.4
			c-0.3,0.8-0.9,1.5-1.7,1.8c-0.5,0.2-1.1,0.3-1.6,0.3h-2.3v3.6H26v-10L30.6,28.7L30.6,28.7z M30,33.4c0.2,0,0.5,0,0.7-0.1
			c0.2,0,0.4-0.1,0.6-0.2c0.2-0.1,0.3-0.3,0.4-0.5c0.2-0.5,0.2-1,0-1.5c-0.1-0.2-0.2-0.3-0.4-0.5c-0.2-0.1-0.4-0.2-0.6-0.2
			c-0.2,0-0.5-0.1-0.7-0.1h-1.8v3L30,33.4L30,33.4z"/>
		<path class="st1" d="M39.2,28.7l3.7,10h-2.3l-0.8-2.2h-3.7l-0.8,2.2h-2.2l3.8-10H39.2z M39.3,34.8l-1.3-3.7l0,0l-1.3,3.7H39.3z"/>
		<path class="st1" d="M45.3,36.2c0.1,0.2,0.3,0.4,0.5,0.6c0.2,0.2,0.5,0.3,0.7,0.3c0.3,0.1,0.6,0.1,0.8,0.1c0.2,0,0.4,0,0.6,0
			c0.2,0,0.4-0.1,0.6-0.2c0.2-0.1,0.4-0.2,0.5-0.4c0.1-0.2,0.2-0.4,0.2-0.6c0-0.2-0.1-0.5-0.3-0.7c-0.2-0.2-0.4-0.3-0.7-0.4
			c-0.3-0.1-0.7-0.2-1-0.3c-0.4-0.1-0.7-0.2-1.1-0.3c-0.4-0.1-0.7-0.2-1-0.4c-0.4-0.1-0.7-0.3-1-0.5c-0.3-0.2-0.5-0.5-0.7-0.8
			c-0.2-0.4-0.3-0.8-0.3-1.2c0-0.5,0.1-0.9,0.3-1.3c0.2-0.4,0.5-0.7,0.9-1c0.4-0.3,0.8-0.5,1.2-0.6c0.4-0.1,0.9-0.2,1.3-0.2
			c0.5,0,1,0.1,1.5,0.2c0.5,0.1,0.9,0.3,1.3,0.6c0.4,0.3,0.7,0.6,0.9,1c0.2,0.5,0.3,1,0.3,1.5H49c0-0.2-0.1-0.5-0.2-0.7
			c-0.1-0.2-0.3-0.3-0.4-0.5c-0.2-0.1-0.4-0.2-0.6-0.2c-0.2,0-0.5-0.1-0.8-0.1c-0.2,0-0.4,0-0.5,0.1c-0.2,0-0.3,0.1-0.5,0.2
			c-0.1,0.1-0.3,0.2-0.4,0.4c-0.2,0.3-0.2,0.7,0,1c0.1,0.2,0.3,0.3,0.4,0.3c0.3,0.1,0.6,0.2,0.9,0.3l1.5,0.4c0.2,0,0.5,0.1,0.8,0.2
			c0.4,0.1,0.7,0.3,1,0.5c0.3,0.2,0.6,0.5,0.8,0.9c0.3,0.4,0.4,0.9,0.4,1.4c0,0.4-0.1,0.8-0.3,1.2c-0.2,0.4-0.5,0.7-0.8,1
			c-0.4,0.3-0.8,0.5-1.3,0.7c-0.6,0.2-1.2,0.2-1.8,0.2c-0.5,0-1.1-0.1-1.6-0.2c-0.5-0.1-1-0.3-1.4-0.6c-0.4-0.3-0.7-0.6-1-1.1
			c-0.2-0.5-0.4-1-0.3-1.6h2.1C45.2,35.7,45.2,36,45.3,36.2z"/>
		<path class="st1" d="M54.3,36.2c0.1,0.2,0.3,0.4,0.5,0.6c0.2,0.2,0.5,0.3,0.7,0.3c0.3,0.1,0.6,0.1,0.8,0.1c0.2,0,0.4,0,0.6,0
			c0.2,0,0.4-0.1,0.6-0.2c0.2-0.1,0.4-0.2,0.5-0.4c0.1-0.2,0.2-0.4,0.2-0.6c0-0.2-0.1-0.5-0.3-0.7c-0.2-0.2-0.4-0.3-0.7-0.4
			c-0.3-0.1-0.6-0.2-1-0.3c-0.3-0.1-0.7-0.2-1.1-0.3c-0.4-0.1-0.7-0.2-1.1-0.4c-0.4-0.1-0.7-0.3-1-0.5c-0.3-0.2-0.5-0.5-0.7-0.8
			c-0.2-0.4-0.3-0.8-0.3-1.2c0-0.5,0.1-0.9,0.3-1.3c0.2-0.4,0.5-0.7,0.9-1c0.4-0.3,0.8-0.4,1.2-0.6c0.4-0.1,0.9-0.2,1.3-0.2
			c0.5,0,1,0.1,1.5,0.2c0.5,0.1,0.9,0.3,1.3,0.6c0.4,0.3,0.7,0.6,0.9,1c0.2,0.5,0.3,1,0.3,1.5h-2.1c0-0.3-0.1-0.5-0.2-0.7
			c-0.1-0.2-0.3-0.3-0.4-0.5c-0.2-0.1-0.4-0.2-0.6-0.2c-0.2,0-0.5-0.1-0.8-0.1c-0.2,0-0.4,0-0.5,0.1c-0.2,0-0.3,0.1-0.5,0.2
			c-0.1,0.1-0.3,0.2-0.4,0.4c-0.2,0.3-0.2,0.7,0,1c0.1,0.2,0.3,0.3,0.4,0.3c0.3,0.1,0.6,0.2,0.9,0.3l1.5,0.4c0.2,0,0.5,0.1,0.8,0.2
			c0.4,0.1,0.7,0.3,1,0.5c0.3,0.2,0.6,0.5,0.8,0.9c0.3,0.4,0.4,0.9,0.4,1.4c0,0.4-0.1,0.9-0.3,1.2c-0.2,0.4-0.5,0.7-0.8,1
			c-0.4,0.3-0.8,0.5-1.3,0.7c-0.6,0.2-1.2,0.2-1.8,0.2c-0.5,0-1.1-0.1-1.6-0.2c-0.5-0.1-1-0.3-1.4-0.6c-0.4-0.3-0.8-0.7-1-1.1
			c-0.2-0.5-0.4-1-0.3-1.6h2.1C54.1,35.7,54.1,36,54.3,36.2z"/>
	</g>
</g>
</svg>
