<svg xmlns="http://www.w3.org/2000/svg" viewBox="0 0 67 67"><defs><style>.cls-1{fill:#bbb;}.cls-2{fill:#fff;}</style></defs><title>Asset 1</title><g id="Layer_2" data-name="Layer 2"><g id="Layer_1-2" data-name="Layer 1"><path class="cls-1" d="M33.5,0A33.5,33.5,0,1,0,67,33.5,33.54,33.54,0,0,0,33.5,0Z"/><path class="cls-2" d="M11.84,28.7a5.78,5.78,0,0,1,1.3.13,2.79,2.79,0,0,1,1,.41,1.92,1.92,0,0,1,.65.76A2.76,2.76,0,0,1,15,31.18a2.2,2.2,0,0,1-.34,1.26,2.56,2.56,0,0,1-1,.83,2.41,2.41,0,0,1,1.38.93,2.79,2.79,0,0,1,.46,1.6,2.84,2.84,0,0,1-.29,1.31,2.46,2.46,0,0,1-.79.9,3.54,3.54,0,0,1-1.13.52A5.17,5.17,0,0,1,12,38.7H7.16v-10Zm-.28,4.05a1.59,1.59,0,0,0,1-.28,1.07,1.07,0,0,0,.38-.91,1.09,1.09,0,0,0-.13-.57,1,1,0,0,0-.34-.35,1.44,1.44,0,0,0-.48-.17,3.45,3.45,0,0,0-.57,0H9.33v2.34h2.23ZM11.69,37a3.18,3.18,0,0,0,.62-.06,1.42,1.42,0,0,0,.52-.21,1.07,1.07,0,0,0,.36-.4,1.35,1.35,0,0,0,.13-.64,1.3,1.3,0,0,0-.43-1.1,1.85,1.85,0,0,0-1.15-.33H9.35V37Z"/><path class="cls-2" d="M15.78,28.7h2.46l2.34,3.95L22.9,28.7h2.45l-3.71,6.16V38.7h-2.2V34.81Z"/><path class="cls-2" d="M30.56,28.7a4.21,4.21,0,0,1,1.6.27,3,3,0,0,1,1.07.72,2.65,2.65,0,0,1,.6,1,3.79,3.79,0,0,1,0,2.37,2.77,2.77,0,0,1-1.67,1.75,4.21,4.21,0,0,1-1.6.27H28.25v3.58h-2.2v-10h4.51ZM30,33.4a4.4,4.4,0,0,0,.73-.06,1.69,1.69,0,0,0,.62-.22,1.24,1.24,0,0,0,.43-.45,1.93,1.93,0,0,0,0-1.54,1.19,1.19,0,0,0-.43-.46,1.69,1.69,0,0,0-.62-.22,4.32,4.32,0,0,0-.73-.06H28.25v3H30Z"/><path class="cls-2" d="M39.2,28.7l3.74,10H40.66l-.76-2.23H36.16l-.79,2.23H33.16l3.78-10Zm.13,6.13-1.26-3.67h0l-1.3,3.67Z"/><path class="cls-2" d="M45.35,36.23a1.66,1.66,0,0,0,.48.57,2,2,0,0,0,.71.32,3.34,3.34,0,0,0,.84.11,4.7,4.7,0,0,0,.63,0,2.2,2.2,0,0,0,.63-.19,1.32,1.32,0,0,0,.49-.38,1,1,0,0,0,.2-.62.9.9,0,0,0-.26-.66,2,2,0,0,0-.68-.42,6.69,6.69,0,0,0-1-.29c-.36-.08-.71-.18-1.08-.28A9.23,9.23,0,0,1,45.27,34a3.52,3.52,0,0,1-1-.53,2.4,2.4,0,0,1-.68-.8,2.47,2.47,0,0,1-.26-1.17,2.64,2.64,0,0,1,.33-1.34,3.13,3.13,0,0,1,.86-.95,3.54,3.54,0,0,1,1.21-.56,5.15,5.15,0,0,1,1.34-.18,6.16,6.16,0,0,1,1.5.18,3.82,3.82,0,0,1,1.28.57,2.86,2.86,0,0,1,.89,1,3.08,3.08,0,0,1,.33,1.48H49A1.71,1.71,0,0,0,48.8,31a1.27,1.27,0,0,0-.43-.46,1.94,1.94,0,0,0-.61-.24,3.54,3.54,0,0,0-.75-.07,2.39,2.39,0,0,0-.53.06,1.29,1.29,0,0,0-.48.2,1.33,1.33,0,0,0-.36.35,1.09,1.09,0,0,0,0,1,1,1,0,0,0,.44.34,5.54,5.54,0,0,0,.91.31l1.52.39c.19,0,.45.1.78.2a3.71,3.71,0,0,1,1,.47,2.91,2.91,0,0,1,.85.86,2.44,2.44,0,0,1,.36,1.38A3,3,0,0,1,51.19,37a2.87,2.87,0,0,1-.79,1,4,4,0,0,1-1.3.67,6.13,6.13,0,0,1-1.8.24,6.49,6.49,0,0,1-1.6-.2,4.12,4.12,0,0,1-1.37-.64A3.2,3.2,0,0,1,43.38,37a3.34,3.34,0,0,1-.34-1.6h2.13A1.57,1.57,0,0,0,45.35,36.23Z"/><path class="cls-2" d="M54.29,36.23a1.66,1.66,0,0,0,.48.57,2,2,0,0,0,.71.32,3.34,3.34,0,0,0,.84.11,4.7,4.7,0,0,0,.63,0,2.29,2.29,0,0,0,.63-.19,1.32,1.32,0,0,0,.49-.38,1,1,0,0,0,.2-.62.9.9,0,0,0-.26-.66,2,2,0,0,0-.68-.42,6.69,6.69,0,0,0-.95-.29c-.35-.08-.71-.18-1.08-.28A9.85,9.85,0,0,1,54.21,34a3.38,3.38,0,0,1-1-.53,2.4,2.4,0,0,1-.68-.8,2.47,2.47,0,0,1-.26-1.17,2.64,2.64,0,0,1,.33-1.34,3.13,3.13,0,0,1,.86-.95,3.78,3.78,0,0,1,1.2-.56,5.15,5.15,0,0,1,1.34-.18,6.24,6.24,0,0,1,1.51.18,3.82,3.82,0,0,1,1.28.57,2.86,2.86,0,0,1,.89,1,3.08,3.08,0,0,1,.33,1.48H57.93a1.71,1.71,0,0,0-.19-.74,1.27,1.27,0,0,0-.43-.46,1.94,1.94,0,0,0-.61-.24,3.54,3.54,0,0,0-.75-.07,2.33,2.33,0,0,0-.53.06,1.29,1.29,0,0,0-.48.2,1.33,1.33,0,0,0-.36.35,1.09,1.09,0,0,0,0,1,1,1,0,0,0,.44.34,4.73,4.73,0,0,0,.91.31l1.52.39c.19,0,.45.1.78.2a3.71,3.71,0,0,1,1,.47,2.91,2.91,0,0,1,.85.86,2.44,2.44,0,0,1,.36,1.38A3,3,0,0,1,60.13,37a2.87,2.87,0,0,1-.79,1,3.89,3.89,0,0,1-1.3.67,6.13,6.13,0,0,1-1.8.24,6.55,6.55,0,0,1-1.6-.2,4,4,0,0,1-1.37-.64,3.2,3.2,0,0,1-1-1.11,3.34,3.34,0,0,1-.34-1.6h2.13A1.8,1.8,0,0,0,54.29,36.23Z"/></g></g></svg>