<?xml version="1.0" encoding="utf-8"?>
<!-- Generator: Adobe Illustrator 24.0.1, SVG Export Plug-In . SVG Version: 6.00 Build 0)  -->
<svg version="1.1" id="Layer_1" xmlns="http://www.w3.org/2000/svg" xmlns:xlink="http://www.w3.org/1999/xlink" x="0px" y="0px"
	 viewBox="0 0 34 28.4" style="enable-background:new 0 0 34 28.4;" xml:space="preserve">
<style type="text/css">
	.st0{fill:#46009A;}
</style>
<title>Asset 1</title>
<g id="Layer_2_1_">
	<g id="Layer_1-2">
		<path class="st0" d="M2.3,0h29.3C33,0,34,1,34,2.3v1c0,1.3-1,2.3-2.3,2.3H2.3C1,5.7,0,4.6,0,3.3v-1C0,1,1,0,2.3,0z"/>
		<path class="st0" d="M2.3,11.3h29.3c1.3,0,2.3,1,2.3,2.3v1c0,1.3-1,2.3-2.3,2.3H2.3C1,17,0,16,0,14.7v-1C0,12.4,1,11.3,2.3,11.3z"
			/>
		<path class="st0" d="M2.3,22.7h29.3c1.3,0,2.3,1,2.3,2.3v1c0,1.3-1,2.3-2.3,2.3H2.3C1,28.3,0,27.3,0,26v-1C0,23.7,1,22.7,2.3,22.7
			z"/>
	</g>
</g>
</svg>
