<svg xmlns="http://www.w3.org/2000/svg" viewBox="0 0 257.57 33.34"><defs><style>.cls-1{fill:#685fa6;}</style></defs><title>Asset 1</title><g id="Layer_2" data-name="Layer 2"><g id="Layer_1-2" data-name="Layer 1"><path class="cls-1" d="M16.67,33.34A16.67,16.67,0,1,1,33.34,16.67,16.69,16.69,0,0,1,16.67,33.34ZM16.67,5A11.67,11.67,0,1,0,28.34,16.66,11.68,11.68,0,0,0,16.67,5Z"/><rect class="cls-1" x="2.1" y="14.17" width="29.14" height="5" transform="translate(-6.9 16.67) rotate(-45)"/><path class="cls-1" d="M46.3,12.46H39.69V10H50.22v2.32L43,20.89H50.4v2.47H39.12V21Z"/><path class="cls-1" d="M55.09,23.36,50.76,10h3l3,9.41h0l3-9.41h3L58.42,23.36Z"/><path class="cls-1" d="M73.58,22.34a6.18,6.18,0,0,1-4.2,1.32,6.21,6.21,0,0,1-4.21-1.31,5.08,5.08,0,0,1-1.49-4.05V10h2.94V18.3a6.35,6.35,0,0,0,.09,1.07,2.15,2.15,0,0,0,.39.93,2.21,2.21,0,0,0,.83.66,3.37,3.37,0,0,0,1.43.25,2.74,2.74,0,0,0,2.17-.7,3.34,3.34,0,0,0,.6-2.2V10h2.94v8.32A5,5,0,0,1,73.58,22.34Z"/><path class="cls-1" d="M80.2,10v5.55L85.43,10H89.1l-5.23,5.28,5.73,8.09H85.91l-4-6-1.69,1.71v4.31H77.25V10Z"/><path class="cls-1" d="M89.38,14a6.71,6.71,0,0,1,1.29-2.24,5.81,5.81,0,0,1,2.07-1.5,7.35,7.35,0,0,1,5.53,0,5.86,5.86,0,0,1,2.06,1.5A6.71,6.71,0,0,1,101.62,14a8.35,8.35,0,0,1,.45,2.78,8.14,8.14,0,0,1-.45,2.73,6.52,6.52,0,0,1-1.29,2.2,5.92,5.92,0,0,1-2.06,1.47,6.78,6.78,0,0,1-2.77.53,6.93,6.93,0,0,1-2.76-.53,6,6,0,0,1-2.07-1.47,6.52,6.52,0,0,1-1.29-2.2,8.06,8.06,0,0,1-.45-2.73A8.31,8.31,0,0,1,89.38,14Zm2.69,4.42a4.3,4.3,0,0,0,.63,1.43,3.33,3.33,0,0,0,1.12,1,3.38,3.38,0,0,0,1.69.38,3.54,3.54,0,0,0,1.69-.38,3.24,3.24,0,0,0,1.12-1A4.3,4.3,0,0,0,99,18.37a6.88,6.88,0,0,0,.2-1.64A7.41,7.41,0,0,0,99,15a4.42,4.42,0,0,0-.63-1.47,3.26,3.26,0,0,0-1.12-1,3.38,3.38,0,0,0-1.69-.38,3.54,3.54,0,0,0-1.69.38,3.17,3.17,0,0,0-1.12,1A4.42,4.42,0,0,0,92.07,15a7.41,7.41,0,0,0-.2,1.71A6.88,6.88,0,0,0,92.07,18.37Z"/><path class="cls-1" d="M113.08,10v2.47h-6.46v3.09h5.6v2.29h-5.6v5.53h-2.94V10Z"/><path class="cls-1" d="M114,14a6.71,6.71,0,0,1,1.29-2.24,5.81,5.81,0,0,1,2.07-1.5,7.35,7.35,0,0,1,5.53,0,5.86,5.86,0,0,1,2.06,1.5A6.71,6.71,0,0,1,126.2,14a8.35,8.35,0,0,1,.45,2.78,8.14,8.14,0,0,1-.45,2.73,6.52,6.52,0,0,1-1.29,2.2,5.92,5.92,0,0,1-2.06,1.47,6.78,6.78,0,0,1-2.77.53,6.93,6.93,0,0,1-2.76-.53,6,6,0,0,1-2.07-1.47,6.52,6.52,0,0,1-1.29-2.2,8.06,8.06,0,0,1-.45-2.73A8.31,8.31,0,0,1,114,14Zm2.69,4.42a4.3,4.3,0,0,0,.63,1.43,3.33,3.33,0,0,0,1.12,1,3.38,3.38,0,0,0,1.69.38,3.54,3.54,0,0,0,1.69-.38,3.24,3.24,0,0,0,1.12-1,4.3,4.3,0,0,0,.63-1.43,6.88,6.88,0,0,0,.2-1.64,7.41,7.41,0,0,0-.2-1.71,4.42,4.42,0,0,0-.63-1.47,3.26,3.26,0,0,0-1.12-1,3.38,3.38,0,0,0-1.69-.38,3.54,3.54,0,0,0-1.69.38,3.17,3.17,0,0,0-1.12,1,4.42,4.42,0,0,0-.63,1.47,7.11,7.11,0,0,0,0,3.35Z"/><path class="cls-1" d="M135.47,10a4.37,4.37,0,0,1,1.62.29,3.73,3.73,0,0,1,1.24.8,3.56,3.56,0,0,1,.79,1.17,3.75,3.75,0,0,1,.27,1.43,4,4,0,0,1-.5,2A3.13,3.13,0,0,1,137.27,17v0a2.26,2.26,0,0,1,.9.46,2.56,2.56,0,0,1,.58.73,3.42,3.42,0,0,1,.33.93,7,7,0,0,1,.14,1c0,.21,0,.46,0,.75s0,.58.07.88a5.57,5.57,0,0,0,.15.85,1.86,1.86,0,0,0,.31.68h-2.94a5.31,5.31,0,0,1-.3-1.52c0-.59-.09-1.15-.17-1.69a2.65,2.65,0,0,0-.64-1.54,2.16,2.16,0,0,0-1.59-.49h-2.94v5.23h-2.94V10h7.2Zm-1.05,6a2.24,2.24,0,0,0,1.52-.45,1.86,1.86,0,0,0,.51-1.46,1.8,1.8,0,0,0-.51-1.42,2.28,2.28,0,0,0-1.52-.44H131.2V16Z"/><path class="cls-1" d="M153.11,11.81a3.78,3.78,0,0,0-2.28-.65,5.88,5.88,0,0,0-1.11.11,2.91,2.91,0,0,0-1,.37,2,2,0,0,0-.67.7,2.16,2.16,0,0,0-.25,1.1,1.36,1.36,0,0,0,.37,1,2.76,2.76,0,0,0,1,.63,7.8,7.8,0,0,0,1.38.4c.51.11,1,.22,1.56.35s1,.27,1.56.44a5.55,5.55,0,0,1,1.38.68A3.17,3.17,0,0,1,156,18a3.41,3.41,0,0,1,.37,1.65,3.37,3.37,0,0,1-.48,1.83,3.94,3.94,0,0,1-1.23,1.24,5.22,5.22,0,0,1-1.68.69,8.35,8.35,0,0,1-1.85.22,7.77,7.77,0,0,1-2.13-.28,5.33,5.33,0,0,1-1.76-.85,4,4,0,0,1-1.2-1.46,4.76,4.76,0,0,1-.44-2.11h1.69a2.91,2.91,0,0,0,1.19,2.45,3.6,3.6,0,0,0,1.25.58,5.9,5.9,0,0,0,1.46.19,7.16,7.16,0,0,0,1.21-.11,3.49,3.49,0,0,0,1.1-.38,2.24,2.24,0,0,0,.79-.74,2.18,2.18,0,0,0,.3-1.2,1.63,1.63,0,0,0-.37-1.12,2.64,2.64,0,0,0-1-.7,7.21,7.21,0,0,0-1.38-.44l-1.56-.35c-.53-.12-1.05-.26-1.56-.41a5.79,5.79,0,0,1-1.38-.62,2.79,2.79,0,0,1-1.34-2.52,3.45,3.45,0,0,1,1.51-3,4.77,4.77,0,0,1,1.55-.71,6.71,6.71,0,0,1,1.79-.23,7.24,7.24,0,0,1,1.91.24,4.34,4.34,0,0,1,1.55.77,3.69,3.69,0,0,1,1,1.32,4.59,4.59,0,0,1,.42,1.9h-1.69A2.77,2.77,0,0,0,153.11,11.81Z"/><path class="cls-1" d="M157.69,14a6.65,6.65,0,0,1,1.21-2.24,6,6,0,0,1,2-1.56,7,7,0,0,1,5.58,0,5.85,5.85,0,0,1,2,1.56A6.83,6.83,0,0,1,169.69,14a8.85,8.85,0,0,1,0,5.26,6.65,6.65,0,0,1-1.21,2.24,5.89,5.89,0,0,1-2,1.55,7.11,7.11,0,0,1-5.58,0,5.7,5.7,0,0,1-2-1.55,6.83,6.83,0,0,1-1.21-2.24,8.55,8.55,0,0,1-.4-2.63A8.31,8.31,0,0,1,157.69,14Zm1.64,4.63a5.15,5.15,0,0,0,.83,1.77,4.17,4.17,0,0,0,1.44,1.26,4.43,4.43,0,0,0,2.1.48,4.34,4.34,0,0,0,2.1-.48,4.19,4.19,0,0,0,1.44-1.26,5.22,5.22,0,0,0,.82-1.77,7.82,7.82,0,0,0,0-4,5.32,5.32,0,0,0-.82-1.77,4.17,4.17,0,0,0-1.44-1.26,4.83,4.83,0,0,0-4.2,0,4.19,4.19,0,0,0-1.44,1.26,5.34,5.34,0,0,0-.83,1.77,8,8,0,0,0-.26,2A7.52,7.52,0,0,0,159.33,18.67Z"/><path class="cls-1" d="M181.1,22.38a5.46,5.46,0,0,1-3.9,1.28,6.08,6.08,0,0,1-4-1.23,4.84,4.84,0,0,1-1.45-3.91V10h1.78v8.54a3.63,3.63,0,0,0,1,2.73,3.8,3.8,0,0,0,2.75.93,3.4,3.4,0,0,0,2.59-.93,3.82,3.82,0,0,0,.89-2.73V10h1.78v8.54A5,5,0,0,1,181.1,22.38Z"/><path class="cls-1" d="M186.72,10l7,10.85h0V10h1.69V23.37h-2l-7-10.74h0V23.37h-1.69V10Z"/><path class="cls-1" d="M202.5,10a6.67,6.67,0,0,1,4.76,1.57,6.32,6.32,0,0,1,1.67,4.8,10.87,10.87,0,0,1-.37,3,5.6,5.6,0,0,1-1.16,2.19,5,5,0,0,1-2,1.36,8.07,8.07,0,0,1-2.89.47h-4.59V10Zm.15,11.87c.2,0,.45,0,.75-.05a4.69,4.69,0,0,0,1-.22,4.16,4.16,0,0,0,1-.52,3.41,3.41,0,0,0,.89-.92,5.27,5.27,0,0,0,.65-1.45,7.58,7.58,0,0,0,.25-2.11,9.39,9.39,0,0,0-.23-2.15,3.9,3.9,0,0,0-.77-1.61,3.38,3.38,0,0,0-1.38-1,5.51,5.51,0,0,0-2.08-.35h-3V21.85h3Z"/><path class="cls-1" d="M215.47,10V21.87h7.08v1.5h-8.86V10Z"/><path class="cls-1" d="M229.05,10l5.23,13.38h-2l-1.46-4h-5.66l-1.5,4h-1.82L227.08,10Zm1.24,7.85-2.23-6.24h0l-2.27,6.24Z"/><path class="cls-1" d="M240.08,10H241c.33,0,.66,0,1,.06a7.91,7.91,0,0,1,.91.14,2.35,2.35,0,0,1,.72.28,3.42,3.42,0,0,1,1.12,1.09,3,3,0,0,1,.46,1.71,3.24,3.24,0,0,1-.52,1.85,3,3,0,0,1-1.47,1.15v0a3.06,3.06,0,0,1,1.89,1.12,3.4,3.4,0,0,1,.66,2.1A4.06,4.06,0,0,1,245.5,21a3.48,3.48,0,0,1-.78,1.23,3.85,3.85,0,0,1-1.27.86,4.37,4.37,0,0,1-1.75.33h-6.46V10h4.84Zm.48,5.75a3.54,3.54,0,0,0,2.18-.53,2,2,0,0,0,.67-1.6,2.47,2.47,0,0,0-.22-1.12,1.66,1.66,0,0,0-.62-.64,2.38,2.38,0,0,0-.91-.29,9.4,9.4,0,0,0-1.1-.07H237v4.25Zm.9,6.12a2.55,2.55,0,0,0,1.85-.64,2.33,2.33,0,0,0,.67-1.76,2.23,2.23,0,0,0-.24-1.09,1.85,1.85,0,0,0-.65-.68,2.73,2.73,0,0,0-.93-.36,5.52,5.52,0,0,0-1.09-.1H237v4.63Z"/><path class="cls-1" d="M254.28,11.81a3.78,3.78,0,0,0-2.28-.65,5.88,5.88,0,0,0-1.11.11,2.91,2.91,0,0,0-1,.37,2,2,0,0,0-.67.7,2.16,2.16,0,0,0-.25,1.1,1.36,1.36,0,0,0,.37,1,2.76,2.76,0,0,0,1,.63,7.8,7.8,0,0,0,1.38.4c.51.11,1,.22,1.56.35s1.05.27,1.56.44a5.55,5.55,0,0,1,1.38.68,3.17,3.17,0,0,1,1,1.09,3.41,3.41,0,0,1,.37,1.65,3.37,3.37,0,0,1-.48,1.83,3.94,3.94,0,0,1-1.23,1.24,5.22,5.22,0,0,1-1.68.69,8.35,8.35,0,0,1-1.85.22,7.77,7.77,0,0,1-2.13-.28,5.33,5.33,0,0,1-1.76-.85,4,4,0,0,1-1.2-1.46A4.76,4.76,0,0,1,246.8,19h1.69a2.91,2.91,0,0,0,1.19,2.45,3.6,3.6,0,0,0,1.25.58,5.9,5.9,0,0,0,1.46.19,7.16,7.16,0,0,0,1.21-.11,3.49,3.49,0,0,0,1.1-.38,2.24,2.24,0,0,0,.79-.74,2.18,2.18,0,0,0,.3-1.2,1.63,1.63,0,0,0-.37-1.12,2.64,2.64,0,0,0-1-.7,7.21,7.21,0,0,0-1.38-.44l-1.56-.35c-.53-.12-1-.26-1.56-.41a5.79,5.79,0,0,1-1.38-.62,2.79,2.79,0,0,1-1.34-2.52,3.45,3.45,0,0,1,1.51-3,4.77,4.77,0,0,1,1.55-.71,6.71,6.71,0,0,1,1.79-.23,7.24,7.24,0,0,1,1.91.24,4.34,4.34,0,0,1,1.55.77,3.69,3.69,0,0,1,1,1.32,4.59,4.59,0,0,1,.42,1.9h-1.69A2.77,2.77,0,0,0,254.28,11.81Z"/></g></g></svg>