<?xml version="1.0" encoding="utf-8"?>
<!-- Generator: Adobe Illustrator 24.0.1, SVG Export Plug-In . SVG Version: 6.00 Build 0)  -->
<svg version="1.1" id="Layer_1" xmlns="http://www.w3.org/2000/svg" xmlns:xlink="http://www.w3.org/1999/xlink" x="0px" y="0px"
	 viewBox="0 0 257.6 33.3" style="enable-background:new 0 0 257.6 33.3;" xml:space="preserve">
<style type="text/css">
	.st0{fill:#46009A;}
</style>
<title>Asset 1</title>
<g id="Layer_2_1_">
	<g id="Layer_1-2">
		<path class="st0" d="M16.7,33.3C7.5,33.3,0,25.9,0,16.7S7.5,0,16.7,0s16.7,7.5,16.7,16.7l0,0C33.3,25.9,25.9,33.3,16.7,33.3z
			 M16.7,5C10.2,5,5,10.2,5,16.7s5.2,11.7,11.7,11.7s11.7-5.2,11.7-11.7c0,0,0,0,0,0C28.3,10.2,23.1,5,16.7,5z"/>
		<rect x="2.1" y="14.2" transform="matrix(0.7071 -0.7071 0.7071 0.7071 -6.9035 16.6735)" class="st0" width="29.1" height="5"/>
		<path class="st0" d="M46.3,12.5h-6.6V10h10.5v2.3L43,20.9h7.4v2.5H39.1V21L46.3,12.5z"/>
		<path class="st0" d="M55.1,23.4L50.8,10h3l3,9.4l0,0l3-9.4h3l-4.3,13.4H55.1z"/>
		<path class="st0" d="M73.6,22.3c-1.2,0.9-2.7,1.4-4.2,1.3c-1.5,0.1-3-0.4-4.2-1.3c-1.1-1.1-1.6-2.5-1.5-4.1V10h2.9v8.3
			c0,0.4,0,0.7,0.1,1.1c0.1,0.3,0.2,0.7,0.4,0.9c0.2,0.3,0.5,0.5,0.8,0.7c0.5,0.2,0.9,0.3,1.4,0.2c0.8,0.1,1.6-0.2,2.2-0.7
			c0.5-0.6,0.7-1.4,0.6-2.2V10h2.9v8.3C75.2,19.8,74.7,21.3,73.6,22.3z"/>
		<path class="st0" d="M80.2,10v5.6l5.2-5.6h3.7l-5.2,5.3l5.7,8.1h-3.7l-4-6l-1.7,1.7v4.3h-3V10H80.2z"/>
		<path class="st0" d="M89.4,14c0.3-0.8,0.7-1.6,1.3-2.2c0.6-0.6,1.3-1.2,2.1-1.5c1.8-0.7,3.8-0.7,5.5,0c0.8,0.3,1.5,0.9,2.1,1.5
			c0.6,0.7,1,1.4,1.3,2.2c0.3,0.9,0.5,1.8,0.4,2.8c0,0.9-0.1,1.9-0.4,2.7c-0.3,0.8-0.7,1.6-1.3,2.2c-0.6,0.6-1.3,1.1-2.1,1.5
			c-0.9,0.4-1.8,0.5-2.8,0.5c-0.9,0-1.9-0.2-2.8-0.5c-0.8-0.3-1.5-0.8-2.1-1.5c-0.6-0.6-1-1.4-1.3-2.2c-0.3-0.9-0.5-1.8-0.4-2.7
			C88.9,15.8,89.1,14.9,89.4,14z M92.1,18.4c0.1,0.5,0.3,1,0.6,1.4c0.3,0.4,0.7,0.8,1.1,1c0.5,0.3,1.1,0.4,1.7,0.4
			c0.6,0,1.2-0.1,1.7-0.4c0.4-0.2,0.8-0.6,1.1-1c0.3-0.4,0.5-0.9,0.7-1.5c0.1-0.5,0.2-1.1,0.2-1.6c0-0.6-0.1-1.2-0.2-1.7
			c-0.1-0.5-0.3-1-0.6-1.5c-0.3-0.4-0.7-0.8-1.1-1c-0.5-0.3-1.1-0.4-1.7-0.4c-0.6,0-1.2,0.1-1.7,0.4c-0.4,0.2-0.8,0.6-1.1,1
			c-0.3,0.4-0.5,0.9-0.7,1.5c-0.1,0.6-0.2,1.1-0.2,1.7C91.9,17.3,91.9,17.8,92.1,18.4L92.1,18.4z"/>
		<path class="st0" d="M113.1,10v2.5h-6.5v3.1h5.6v2.3h-5.6v5.5h-2.9V10H113.1z"/>
		<path class="st0" d="M114,14c0.3-0.8,0.7-1.6,1.3-2.2c0.6-0.6,1.3-1.2,2.1-1.5c1.8-0.7,3.8-0.7,5.5,0c0.8,0.3,1.5,0.9,2.1,1.5
			c0.6,0.7,1,1.4,1.2,2.2c0.3,0.9,0.5,1.8,0.4,2.8c0,0.9-0.1,1.9-0.4,2.7c-0.3,0.8-0.7,1.6-1.3,2.2c-0.6,0.6-1.3,1.1-2.1,1.5
			c-0.9,0.4-1.8,0.5-2.8,0.5c-0.9,0-1.9-0.2-2.8-0.5c-0.8-0.3-1.5-0.8-2.1-1.5c-0.6-0.6-1-1.4-1.3-2.2c-0.3-0.9-0.5-1.8-0.4-2.7
			C113.5,15.8,113.7,14.9,114,14z M116.7,18.4c0.1,0.5,0.3,1,0.6,1.4c0.3,0.4,0.7,0.8,1.1,1c0.5,0.3,1.1,0.4,1.7,0.4
			c0.6,0,1.2-0.1,1.7-0.4c0.4-0.2,0.8-0.6,1.1-1c0.3-0.4,0.5-0.9,0.6-1.4c0.1-0.5,0.2-1.1,0.2-1.6c0-0.6-0.1-1.1-0.2-1.7
			c-0.1-0.5-0.3-1-0.6-1.5c-0.3-0.4-0.7-0.8-1.1-1c-0.5-0.3-1.1-0.4-1.7-0.4c-0.6,0-1.2,0.1-1.7,0.4c-0.4,0.2-0.8,0.6-1.1,1
			c-0.3,0.4-0.5,0.9-0.6,1.5C116.4,16.2,116.4,17.3,116.7,18.4z"/>
		<path class="st0" d="M135.5,10c0.6,0,1.1,0.1,1.6,0.3c0.5,0.2,0.9,0.5,1.2,0.8c0.3,0.3,0.6,0.7,0.8,1.2c0.2,0.5,0.3,0.9,0.3,1.4
			c0,0.7-0.2,1.4-0.5,2c-0.4,0.6-0.9,1.1-1.6,1.3l0,0c0.3,0.1,0.6,0.2,0.9,0.5c0.2,0.2,0.4,0.5,0.6,0.7c0.2,0.3,0.3,0.6,0.3,0.9
			c0.1,0.3,0.1,0.7,0.1,1c0,0.2,0,0.5,0,0.8s0,0.6,0.1,0.9c0,0.3,0.1,0.6,0.1,0.9c0.1,0.2,0.2,0.5,0.3,0.7h-2.9
			c-0.2-0.5-0.3-1-0.3-1.5c0-0.6-0.1-1.1-0.2-1.7c0-0.6-0.3-1.1-0.6-1.5c-0.4-0.4-1-0.5-1.6-0.5h-2.9v5.2h-2.9V10H135.5L135.5,10z
			 M134.4,16c0.5,0,1.1-0.1,1.5-0.4c0.4-0.4,0.6-0.9,0.5-1.5c0-0.5-0.1-1-0.5-1.4c-0.4-0.3-1-0.5-1.5-0.4h-3.2V16H134.4z"/>
		<path class="st0" d="M153.1,11.8c-0.7-0.5-1.5-0.7-2.3-0.6c-0.4,0-0.7,0-1.1,0.1c-0.4,0.1-0.7,0.2-1,0.4c-0.3,0.2-0.5,0.4-0.7,0.7
			c-0.2,0.3-0.3,0.7-0.2,1.1c0,0.4,0.1,0.7,0.4,1c0.3,0.3,0.6,0.5,1,0.6c0.4,0.2,0.9,0.3,1.4,0.4c0.5,0.1,1,0.2,1.6,0.4
			s1,0.3,1.6,0.4c0.5,0.2,1,0.4,1.4,0.7c0.4,0.3,0.7,0.6,0.9,1.1c0.3,0.5,0.4,1.1,0.4,1.6c0,0.6-0.1,1.3-0.5,1.8
			c-0.3,0.5-0.7,0.9-1.2,1.2c-0.5,0.3-1.1,0.6-1.7,0.7c-0.6,0.1-1.2,0.2-1.9,0.2c-0.7,0-1.4-0.1-2.1-0.3c-0.6-0.2-1.2-0.5-1.8-0.9
			c-0.5-0.4-0.9-0.9-1.2-1.5c-0.3-0.7-0.5-1.4-0.4-2.1h1.7c0,1,0.4,1.9,1.2,2.5c0.4,0.3,0.8,0.5,1.2,0.6c0.5,0.1,1,0.2,1.5,0.2
			c0.4,0,0.8,0,1.2-0.1c0.4-0.1,0.8-0.2,1.1-0.4c0.3-0.2,0.6-0.4,0.8-0.7c0.2-0.4,0.3-0.8,0.3-1.2c0-0.4-0.1-0.8-0.4-1.1
			c-0.3-0.3-0.6-0.5-1-0.7c-0.4-0.2-0.9-0.3-1.4-0.4l-1.6-0.4c-0.5-0.1-1.1-0.3-1.6-0.4c-0.5-0.1-0.9-0.4-1.4-0.6
			c-0.9-0.5-1.4-1.5-1.3-2.5c-0.1-1.2,0.5-2.3,1.5-3c0.5-0.3,1-0.6,1.6-0.7c0.6-0.2,1.2-0.2,1.8-0.2c0.6,0,1.3,0.1,1.9,0.2
			c0.6,0.1,1.1,0.4,1.6,0.8c0.4,0.4,0.8,0.8,1,1.3c0.3,0.6,0.4,1.2,0.4,1.9H154C154,13.1,153.7,12.3,153.1,11.8z"/>
		<path class="st0" d="M157.7,14c0.3-0.8,0.7-1.6,1.2-2.2c0.5-0.7,1.2-1.2,2-1.6c1.8-0.8,3.8-0.8,5.6,0c0.8,0.4,1.5,0.9,2,1.6
			c0.5,0.7,1,1.4,1.2,2.2c0.5,1.7,0.5,3.5,0,5.3c-0.3,0.8-0.7,1.6-1.2,2.2c-0.5,0.7-1.2,1.2-2,1.5c-1.8,0.8-3.8,0.8-5.6,0
			c-0.8-0.4-1.5-0.9-2-1.5c-0.5-0.7-1-1.4-1.2-2.2c-0.3-0.9-0.4-1.7-0.4-2.6C157.3,15.7,157.4,14.8,157.7,14z M159.3,18.6
			c0.2,0.6,0.4,1.2,0.8,1.8c0.4,0.5,0.9,1,1.4,1.3c0.6,0.3,1.4,0.5,2.1,0.5c0.7,0,1.5-0.1,2.1-0.5c0.6-0.3,1.1-0.7,1.4-1.3
			c0.4-0.5,0.7-1.1,0.8-1.8c0.3-1.3,0.3-2.7,0-4c-0.2-0.6-0.4-1.2-0.8-1.8c-0.4-0.5-0.9-1-1.4-1.3c-1.3-0.6-2.9-0.6-4.2,0
			c-0.6,0.3-1.1,0.7-1.4,1.3c-0.4,0.5-0.7,1.1-0.8,1.8c-0.2,0.7-0.3,1.3-0.3,2C159.1,17.3,159.2,18,159.3,18.6L159.3,18.6z"/>
		<path class="st0" d="M181.1,22.4c-1.1,0.9-2.5,1.4-3.9,1.3c-1.4,0.1-2.9-0.4-4-1.2c-1-1-1.6-2.5-1.4-3.9V10h1.8v8.5
			c-0.1,1,0.3,2,1,2.7c0.8,0.7,1.7,1,2.8,0.9c1,0.1,1.9-0.3,2.6-0.9c0.6-0.8,1-1.7,0.9-2.7V10h1.8v8.5
			C182.6,20,182.1,21.4,181.1,22.4z"/>
		<path class="st0" d="M186.7,10l7,10.9l0,0V10h1.7v13.4h-2l-7-10.7l0,0v10.7h-1.7V10H186.7z"/>
		<path class="st0" d="M202.5,10c1.7-0.1,3.4,0.4,4.8,1.6c1.2,1.3,1.8,3,1.7,4.8c0,1-0.1,2-0.4,3c-0.2,0.8-0.6,1.6-1.2,2.2
			c-0.5,0.6-1.2,1.1-2,1.4c-0.9,0.3-1.9,0.5-2.9,0.5h-4.6V10H202.5z M202.6,21.9c0.2,0,0.4,0,0.8,0c0.3,0,0.7-0.1,1-0.2
			c0.4-0.1,0.7-0.3,1-0.5c0.4-0.2,0.7-0.6,0.9-0.9c0.3-0.4,0.5-0.9,0.6-1.5c0.2-0.7,0.3-1.4,0.2-2.1c0-0.7-0.1-1.4-0.2-2.2
			c-0.1-0.6-0.4-1.1-0.8-1.6c-0.4-0.4-0.8-0.8-1.4-1c-0.7-0.2-1.4-0.4-2.1-0.4h-3v10.4L202.6,21.9L202.6,21.9z"/>
		<path class="st0" d="M215.5,10v11.9h7.1v1.5h-8.9V10H215.5z"/>
		<path class="st0" d="M229.1,10l5.2,13.4h-2l-1.5-4h-5.7l-1.5,4h-1.8l5.2-13.4H229.1z M230.3,17.8l-2.2-6.2l0,0l-2.3,6.2H230.3z"/>
		<path class="st0" d="M240.1,10h0.9c0.3,0,0.7,0,1,0.1c0.3,0,0.6,0.1,0.9,0.1c0.3,0.1,0.5,0.1,0.7,0.3c0.5,0.3,0.8,0.6,1.1,1.1
			c0.3,0.5,0.5,1.1,0.5,1.7c0,0.7-0.2,1.3-0.5,1.9c-0.4,0.5-0.9,0.9-1.5,1.2l0,0c0.7,0.1,1.4,0.5,1.9,1.1c0.4,0.6,0.7,1.3,0.7,2.1
			c0,0.5-0.1,1-0.3,1.5c-0.2,0.5-0.4,0.9-0.8,1.2c-0.4,0.4-0.8,0.7-1.3,0.9c-0.6,0.2-1.2,0.3-1.8,0.3h-6.5V10H240.1L240.1,10z
			 M240.6,15.7c0.8,0.1,1.5-0.1,2.2-0.5c0.5-0.4,0.7-1,0.7-1.6c0-0.4-0.1-0.8-0.2-1.1c-0.1-0.3-0.4-0.5-0.6-0.6
			c-0.3-0.2-0.6-0.3-0.9-0.3c-0.4,0-0.7-0.1-1.1-0.1H237v4.2H240.6z M241.5,21.9c0.7,0,1.3-0.2,1.9-0.6c0.5-0.5,0.7-1.1,0.7-1.8
			c0-0.4-0.1-0.8-0.2-1.1c-0.2-0.3-0.4-0.5-0.6-0.7c-0.3-0.2-0.6-0.3-0.9-0.4c-0.4-0.1-0.7-0.1-1.1-0.1H237v4.6H241.5z"/>
		<path class="st0" d="M254.3,11.8c-0.7-0.5-1.5-0.7-2.3-0.6c-0.4,0-0.7,0-1.1,0.1c-0.4,0.1-0.7,0.2-1,0.4c-0.3,0.2-0.5,0.4-0.7,0.7
			c-0.2,0.3-0.3,0.7-0.2,1.1c0,0.4,0.1,0.7,0.4,1c0.3,0.3,0.6,0.5,1,0.6c0.4,0.2,0.9,0.3,1.4,0.4c0.5,0.1,1,0.2,1.6,0.4
			s1.1,0.3,1.6,0.4c0.5,0.2,1,0.4,1.4,0.7c0.4,0.3,0.8,0.7,1,1.1c0.3,0.5,0.4,1.1,0.4,1.6c0,0.6-0.1,1.3-0.5,1.8
			c-0.3,0.5-0.7,0.9-1.2,1.2c-0.5,0.3-1.1,0.6-1.7,0.7c-0.6,0.1-1.2,0.2-1.9,0.2c-0.7,0-1.4-0.1-2.1-0.3c-0.6-0.2-1.2-0.5-1.8-0.9
			c-0.5-0.4-0.9-0.9-1.2-1.5c-0.3-0.6-0.5-1.4-0.5-2.1h1.7c0,1,0.4,1.9,1.2,2.5c0.4,0.3,0.8,0.5,1.2,0.6c0.5,0.1,1,0.2,1.5,0.2
			c0.4,0,0.8,0,1.2-0.1c0.4-0.1,0.8-0.2,1.1-0.4c0.3-0.2,0.6-0.4,0.8-0.7c0.2-0.4,0.3-0.8,0.3-1.2c0-0.4-0.1-0.8-0.4-1.1
			c-0.3-0.3-0.6-0.5-1-0.7c-0.4-0.2-0.9-0.3-1.4-0.4l-1.6-0.4c-0.5-0.1-1-0.3-1.6-0.4c-0.5-0.1-0.9-0.4-1.4-0.6
			c-0.9-0.5-1.4-1.5-1.3-2.5c-0.1-1.2,0.5-2.3,1.5-3c0.5-0.3,1-0.6,1.6-0.7c0.6-0.2,1.2-0.2,1.8-0.2c0.6,0,1.3,0.1,1.9,0.2
			c0.6,0.1,1.1,0.4,1.6,0.8c0.4,0.4,0.8,0.8,1,1.3c0.3,0.6,0.4,1.2,0.4,1.9h-1.7C255.2,13.1,254.9,12.3,254.3,11.8z"/>
	</g>
</g>
</svg>
