<?xml version="1.0" encoding="utf-8"?>
<!-- Generator: Adobe Illustrator 24.0.1, SVG Export Plug-In . SVG Version: 6.00 Build 0)  -->
<svg version="1.1" id="Layer_1" xmlns="http://www.w3.org/2000/svg" xmlns:xlink="http://www.w3.org/1999/xlink" x="0px" y="0px"
	 viewBox="0 0 257.57 33.34" style="enable-background:new 0 0 257.57 33.34;" xml:space="preserve">
<style type="text/css">
	.st0{fill:#FFFFFF;}
</style>
<g id="Layer_2_1_">
	<g id="Layer_1-2">
		<path class="st0" d="M16.67,33.34C7.46,33.34,0,25.88,0,16.67S7.46,0,16.67,0s16.67,7.46,16.67,16.67l0,0
			C33.33,25.87,25.87,33.33,16.67,33.34z M16.67,5C10.22,5,5,10.22,5,16.67s5.22,11.67,11.67,11.67s11.67-5.22,11.67-11.67
			c0,0,0-0.01,0-0.01C28.33,10.22,23.11,5.01,16.67,5z"/>
		
			<rect x="2.1" y="14.17" transform="matrix(0.7071 -0.7071 0.7071 0.7071 -6.9035 16.6735)" class="st0" width="29.14" height="5"/>
		<path class="st0" d="M46.3,12.46h-6.61V10h10.53v2.32L43,20.89h7.4v2.47H39.12V21L46.3,12.46z"/>
		<path class="st0" d="M55.09,23.36L50.76,10h3l3,9.41l0,0l3-9.41h3l-4.34,13.36H55.09z"/>
		<path class="st0" d="M73.58,22.34c-1.19,0.94-2.69,1.41-4.2,1.32c-1.52,0.09-3.01-0.37-4.21-1.31c-1.07-1.06-1.62-2.55-1.49-4.05
			V10h2.94v8.3c0,0.36,0.03,0.72,0.09,1.07c0.05,0.34,0.19,0.66,0.39,0.93c0.22,0.28,0.5,0.51,0.83,0.66
			c0.45,0.19,0.94,0.27,1.43,0.25c0.79,0.09,1.58-0.16,2.17-0.7c0.45-0.64,0.66-1.42,0.6-2.2V10h2.94v8.32
			C75.2,19.82,74.66,21.29,73.58,22.34z"/>
		<path class="st0" d="M80.2,10v5.55L85.43,10h3.67l-5.23,5.28l5.73,8.09h-3.69l-4-6l-1.69,1.71v4.31h-2.97V10H80.2z"/>
		<path class="st0" d="M89.38,14c0.28-0.82,0.72-1.58,1.29-2.24c0.57-0.65,1.28-1.16,2.07-1.5c1.77-0.72,3.76-0.72,5.53,0
			c0.79,0.34,1.49,0.85,2.06,1.5c0.57,0.66,1.01,1.42,1.29,2.24c0.31,0.89,0.46,1.83,0.45,2.78c0.01,0.93-0.15,1.85-0.45,2.73
			c-0.28,0.81-0.72,1.56-1.29,2.2c-0.57,0.63-1.28,1.13-2.06,1.47c-0.88,0.37-1.82,0.55-2.77,0.53c-0.95,0.01-1.89-0.17-2.76-0.53
			c-0.79-0.34-1.49-0.84-2.07-1.47c-0.57-0.64-1.01-1.39-1.29-2.2c-0.31-0.88-0.46-1.8-0.45-2.73C88.92,15.83,89.07,14.89,89.38,14z
			 M92.07,18.42c0.12,0.51,0.33,1,0.63,1.43c0.29,0.41,0.68,0.76,1.12,1c0.52,0.27,1.1,0.4,1.69,0.38c0.59,0.02,1.17-0.12,1.69-0.38
			c0.45-0.24,0.83-0.58,1.12-1c0.32-0.45,0.55-0.95,0.68-1.48c0.13-0.54,0.2-1.09,0.2-1.64c0-0.58-0.07-1.16-0.2-1.73
			c-0.12-0.52-0.33-1.02-0.63-1.47c-0.29-0.42-0.67-0.76-1.12-1c-0.52-0.27-1.1-0.4-1.69-0.38c-0.59-0.02-1.17,0.12-1.69,0.38
			c-0.45,0.24-0.83,0.58-1.12,1c-0.32,0.44-0.55,0.94-0.68,1.47c-0.13,0.56-0.2,1.13-0.2,1.71c0,0.56,0.07,1.12,0.2,1.66V18.42z"/>
		<path class="st0" d="M113.08,10v2.47h-6.46v3.09h5.6v2.29h-5.6v5.53h-2.94V10H113.08z"/>
		<path class="st0" d="M114,14c0.28-0.82,0.72-1.58,1.29-2.24c0.57-0.65,1.28-1.16,2.07-1.5c1.77-0.72,3.76-0.72,5.53,0
			c0.79,0.34,1.49,0.85,2.06,1.5c0.56,0.66,0.98,1.42,1.25,2.24c0.31,0.89,0.46,1.83,0.45,2.78c0.01,0.93-0.15,1.85-0.45,2.73
			c-0.28,0.81-0.72,1.56-1.29,2.2c-0.57,0.63-1.28,1.13-2.06,1.47c-0.88,0.37-1.82,0.55-2.77,0.53c-0.95,0.01-1.89-0.17-2.76-0.53
			c-0.79-0.34-1.49-0.84-2.07-1.47c-0.57-0.64-1.01-1.39-1.29-2.2c-0.31-0.88-0.46-1.8-0.45-2.73C113.51,15.83,113.68,14.89,114,14z
			 M116.69,18.42c0.12,0.51,0.33,1,0.63,1.43c0.29,0.41,0.68,0.76,1.12,1c0.52,0.27,1.1,0.4,1.69,0.38
			c0.59,0.02,1.17-0.12,1.69-0.38c0.45-0.24,0.83-0.58,1.12-1c0.3-0.43,0.51-0.92,0.63-1.43c0.13-0.54,0.2-1.09,0.2-1.64
			c0-0.58-0.07-1.15-0.2-1.71c-0.12-0.52-0.33-1.02-0.63-1.47c-0.29-0.42-0.67-0.76-1.12-1c-0.52-0.27-1.1-0.4-1.69-0.38
			c-0.59-0.02-1.17,0.12-1.69,0.38c-0.45,0.24-0.83,0.58-1.12,1c-0.3,0.45-0.51,0.95-0.63,1.47
			C116.42,16.17,116.42,17.32,116.69,18.42z"/>
		<path class="st0" d="M135.47,10c0.55-0.01,1.1,0.09,1.62,0.29c0.46,0.18,0.88,0.45,1.24,0.8c0.34,0.33,0.61,0.73,0.79,1.17
			c0.18,0.45,0.27,0.94,0.27,1.43c0.01,0.7-0.16,1.39-0.5,2c-0.37,0.61-0.95,1.07-1.62,1.31l0,0c0.33,0.08,0.64,0.24,0.9,0.46
			c0.24,0.21,0.43,0.45,0.58,0.73c0.15,0.29,0.27,0.61,0.33,0.93c0.07,0.33,0.12,0.66,0.14,1c0,0.21,0,0.46,0,0.75s0,0.58,0.07,0.88
			c0.03,0.29,0.08,0.57,0.15,0.85c0.06,0.25,0.16,0.48,0.31,0.68h-2.94c-0.17-0.49-0.27-1-0.3-1.52c0-0.59-0.09-1.15-0.17-1.69
			c-0.04-0.57-0.27-1.11-0.64-1.54c-0.44-0.37-1.02-0.55-1.59-0.49h-2.94v5.23h-2.94V10h7.2H135.47z M134.42,16
			c0.54,0.04,1.09-0.12,1.52-0.45c0.37-0.39,0.56-0.92,0.51-1.46c0.05-0.53-0.14-1.04-0.51-1.42c-0.44-0.32-0.98-0.48-1.52-0.44
			h-3.22V16H134.42z"/>
		<path class="st0" d="M153.11,11.81c-0.67-0.46-1.47-0.68-2.28-0.65c-0.37,0-0.74,0.04-1.11,0.11c-0.35,0.06-0.69,0.19-1,0.37
			c-0.28,0.17-0.51,0.42-0.67,0.7c-0.18,0.34-0.27,0.72-0.25,1.1c-0.02,0.37,0.12,0.73,0.37,1c0.28,0.28,0.63,0.49,1,0.63
			c0.45,0.18,0.91,0.31,1.38,0.4c0.51,0.11,1,0.22,1.56,0.35s1,0.27,1.56,0.44c0.49,0.16,0.95,0.39,1.38,0.68
			c0.39,0.28,0.72,0.64,0.95,1.06c0.26,0.51,0.39,1.08,0.37,1.65c0.02,0.64-0.15,1.28-0.48,1.83c-0.31,0.5-0.73,0.92-1.23,1.24
			c-0.52,0.33-1.08,0.56-1.68,0.69c-0.61,0.14-1.23,0.22-1.85,0.22c-0.72,0.01-1.44-0.09-2.13-0.28c-0.63-0.17-1.23-0.46-1.76-0.85
			c-0.51-0.38-0.92-0.88-1.2-1.46c-0.31-0.66-0.46-1.38-0.44-2.11h1.69c-0.03,0.96,0.41,1.88,1.19,2.45
			c0.38,0.27,0.8,0.47,1.25,0.58c0.48,0.12,0.97,0.19,1.46,0.19c0.41,0,0.81-0.04,1.21-0.11c0.39-0.06,0.76-0.19,1.1-0.38
			c0.32-0.18,0.59-0.43,0.79-0.74c0.21-0.36,0.32-0.78,0.3-1.2c0.02-0.41-0.11-0.81-0.37-1.12c-0.27-0.31-0.62-0.55-1-0.7
			c-0.44-0.19-0.91-0.34-1.38-0.44l-1.56-0.35c-0.53-0.12-1.05-0.26-1.56-0.41c-0.49-0.15-0.95-0.35-1.38-0.62
			c-0.88-0.53-1.39-1.5-1.34-2.52c-0.05-1.19,0.52-2.33,1.51-3c0.47-0.33,0.99-0.57,1.55-0.71c0.58-0.16,1.19-0.23,1.79-0.23
			c0.64-0.01,1.29,0.08,1.91,0.24c0.56,0.15,1.09,0.41,1.55,0.77c0.43,0.36,0.77,0.81,1,1.32c0.27,0.6,0.42,1.24,0.42,1.9h-1.69
			C154.03,13.07,153.69,12.33,153.11,11.81z"/>
		<path class="st0" d="M157.69,14c0.26-0.82,0.67-1.58,1.21-2.24c0.55-0.66,1.23-1.19,2-1.56c1.78-0.77,3.8-0.77,5.58,0
			c0.77,0.37,1.46,0.9,2,1.56c0.54,0.66,0.95,1.42,1.21,2.24c0.53,1.71,0.53,3.55,0,5.26c-0.26,0.82-0.67,1.58-1.21,2.24
			c-0.55,0.66-1.23,1.18-2,1.55c-1.78,0.76-3.8,0.76-5.58,0c-0.77-0.36-1.46-0.89-2-1.55c-0.54-0.66-0.95-1.42-1.21-2.24
			c-0.27-0.85-0.4-1.74-0.4-2.63C157.28,15.74,157.42,14.85,157.69,14z M159.33,18.63c0.16,0.64,0.44,1.24,0.83,1.77
			c0.38,0.53,0.87,0.96,1.44,1.26c0.65,0.33,1.37,0.5,2.1,0.48c0.73,0.02,1.45-0.15,2.1-0.48c0.57-0.3,1.06-0.73,1.44-1.26
			c0.38-0.53,0.66-1.13,0.82-1.77c0.35-1.31,0.35-2.69,0-4c-0.16-0.64-0.44-1.24-0.82-1.77c-0.38-0.53-0.87-0.96-1.44-1.26
			c-1.33-0.64-2.87-0.64-4.2,0c-0.57,0.3-1.06,0.73-1.44,1.26c-0.38,0.53-0.66,1.13-0.83,1.77c-0.17,0.65-0.26,1.33-0.26,2
			c-0.01,0.69,0.08,1.38,0.26,2.04V18.63z"/>
		<path class="st0" d="M181.1,22.38c-1.08,0.92-2.48,1.38-3.9,1.28c-1.44,0.08-2.85-0.36-4-1.23c-1.05-1.02-1.58-2.45-1.45-3.91V10
			h1.78v8.54c-0.06,1.01,0.3,2,1,2.73c0.76,0.66,1.75,1,2.75,0.93c0.96,0.07,1.9-0.27,2.59-0.93c0.64-0.76,0.96-1.74,0.89-2.73V10
			h1.78v8.54C182.63,19.97,182.11,21.36,181.1,22.38z"/>
		<path class="st0" d="M186.72,10l7,10.85l0,0V10h1.69v13.37h-2l-7-10.74l0,0v10.74h-1.69V10H186.72z"/>
		<path class="st0" d="M202.5,10c1.73-0.12,3.44,0.45,4.76,1.57c1.2,1.3,1.81,3.04,1.67,4.8c0.02,1.01-0.11,2.02-0.37,3
			c-0.22,0.81-0.61,1.56-1.16,2.19c-0.55,0.61-1.23,1.08-2,1.36c-0.93,0.33-1.91,0.49-2.89,0.47h-4.59V10H202.5z M202.65,21.87
			c0.2,0,0.45,0,0.75-0.05c0.34-0.04,0.68-0.11,1-0.22c0.36-0.13,0.69-0.3,1-0.52c0.35-0.25,0.65-0.56,0.89-0.92
			c0.29-0.45,0.51-0.94,0.65-1.45c0.18-0.69,0.27-1.4,0.25-2.11c0.01-0.72-0.07-1.44-0.23-2.15c-0.13-0.59-0.39-1.14-0.77-1.61
			c-0.37-0.45-0.84-0.79-1.38-1c-0.66-0.25-1.37-0.37-2.08-0.35h-3v10.36h3L202.65,21.87z"/>
		<path class="st0" d="M215.47,10v11.87h7.08v1.5h-8.86V10H215.47z"/>
		<path class="st0" d="M229.05,10l5.23,13.38h-2l-1.46-4h-5.66l-1.5,4h-1.82L227.08,10H229.05z M230.29,17.85l-2.23-6.24l0,0
			l-2.27,6.24H230.29z"/>
		<path class="st0" d="M240.08,10H241c0.33,0,0.66,0,1,0.06c0.31,0.03,0.61,0.08,0.91,0.14c0.25,0.05,0.5,0.15,0.72,0.28
			c0.45,0.27,0.84,0.65,1.12,1.09c0.32,0.51,0.48,1.11,0.46,1.71c0.02,0.66-0.16,1.3-0.52,1.85c-0.36,0.53-0.87,0.93-1.47,1.15l0,0
			c0.75,0.13,1.42,0.53,1.89,1.12c0.45,0.61,0.68,1.35,0.66,2.1c0.01,0.51-0.09,1.02-0.27,1.5c-0.17,0.46-0.44,0.88-0.78,1.23
			c-0.36,0.37-0.79,0.66-1.27,0.86c-0.55,0.23-1.15,0.34-1.75,0.33h-6.46V10H240.08L240.08,10z M240.56,15.75
			c0.76,0.06,1.53-0.12,2.18-0.53c0.46-0.4,0.7-0.99,0.67-1.6c0.02-0.39-0.06-0.77-0.22-1.12c-0.14-0.27-0.36-0.49-0.62-0.64
			c-0.28-0.16-0.59-0.26-0.91-0.29c-0.36-0.04-0.73-0.07-1.1-0.07H237v4.25H240.56z M241.46,21.87c0.68,0.04,1.34-0.19,1.85-0.64
			c0.46-0.47,0.7-1.11,0.67-1.76c0.01-0.38-0.07-0.75-0.24-1.09c-0.15-0.28-0.38-0.51-0.65-0.68c-0.29-0.18-0.6-0.3-0.93-0.36
			c-0.36-0.07-0.72-0.1-1.09-0.1H237v4.63H241.46z"/>
		<path class="st0" d="M254.28,11.81c-0.67-0.46-1.47-0.68-2.28-0.65c-0.37,0-0.74,0.04-1.11,0.11c-0.35,0.06-0.69,0.19-1,0.37
			c-0.28,0.17-0.51,0.42-0.67,0.7c-0.18,0.34-0.27,0.72-0.25,1.1c-0.02,0.37,0.12,0.73,0.37,1c0.28,0.28,0.63,0.49,1,0.63
			c0.45,0.18,0.91,0.31,1.38,0.4c0.51,0.11,1,0.22,1.56,0.35s1.05,0.27,1.56,0.44c0.49,0.16,0.95,0.39,1.38,0.68
			c0.41,0.28,0.76,0.65,1,1.09c0.26,0.51,0.39,1.08,0.37,1.65c0.02,0.64-0.15,1.28-0.48,1.83c-0.31,0.5-0.73,0.92-1.23,1.24
			c-0.52,0.33-1.08,0.56-1.68,0.69c-0.61,0.14-1.23,0.22-1.85,0.22c-0.72,0.01-1.44-0.09-2.13-0.28c-0.63-0.17-1.23-0.46-1.76-0.85
			c-0.51-0.38-0.92-0.88-1.2-1.46c-0.31-0.65-0.46-1.35-0.46-2.07h1.69c-0.03,0.96,0.41,1.88,1.19,2.45
			c0.38,0.27,0.8,0.47,1.25,0.58c0.48,0.12,0.97,0.19,1.46,0.19c0.41,0,0.81-0.04,1.21-0.11c0.39-0.06,0.76-0.19,1.1-0.38
			c0.32-0.18,0.59-0.43,0.79-0.74c0.21-0.36,0.32-0.78,0.3-1.2c0.02-0.41-0.11-0.81-0.37-1.12c-0.27-0.31-0.62-0.55-1-0.7
			c-0.44-0.19-0.91-0.34-1.38-0.44l-1.56-0.35c-0.53-0.12-1-0.26-1.56-0.41c-0.49-0.15-0.95-0.35-1.38-0.62
			c-0.88-0.53-1.39-1.5-1.34-2.52c-0.05-1.19,0.52-2.33,1.51-3c0.47-0.33,0.99-0.57,1.55-0.71c0.58-0.16,1.19-0.23,1.79-0.23
			c0.64-0.01,1.29,0.08,1.91,0.24c0.56,0.15,1.09,0.41,1.55,0.77c0.43,0.36,0.77,0.81,1,1.32c0.27,0.6,0.42,1.24,0.42,1.9h-1.69
			C255.24,13.11,254.89,12.34,254.28,11.81z"/>
	</g>
</g>
</svg>
